<?xml version="1.0" encoding="utf-8"?>
<!-- Generator: Adobe Illustrator 16.0.0, SVG Export Plug-In . SVG Version: 6.00 Build 0)  -->
<!DOCTYPE svg PUBLIC "-//W3C//DTD SVG 1.1//EN" "http://www.w3.org/Graphics/SVG/1.1/DTD/svg11.dtd" [
	<!ENTITY ns_flows "http://ns.adobe.com/Flows/1.0/">
	<!ENTITY ns_extend "http://ns.adobe.com/Extensibility/1.0/">
	<!ENTITY ns_ai "http://ns.adobe.com/AdobeIllustrator/10.0/">
	<!ENTITY ns_graphs "http://ns.adobe.com/Graphs/1.0/">
]>
<svg version="1.1" id="圖層_1" xmlns:x="&ns_extend;" xmlns:i="&ns_ai;" xmlns:graph="&ns_graphs;"
	 xmlns="http://www.w3.org/2000/svg" xmlns:xlink="http://www.w3.org/1999/xlink" xmlns:a="http://ns.adobe.com/AdobeSVGViewerExtensions/3.0/"
	 x="0px" y="0px" width="100px" height="100px" viewBox="0 0 100 100" style="enable-background:new 0 0 100 100;"
	 xml:space="preserve">
<g>
	<g>
		<path style="fill-rule:evenodd;clip-rule:evenodd;fill:#20529D;" d="M93.54,49.934c0.005,6.684-0.018,13.368,0.008,20.051
			c0.034,8.556-3.528,15.184-11.253,18.832c-8.039,3.804-15.916,2.691-22.994-2.81c-4.937-3.837-4.886-3.908-9.689,0.062
			C37.377,96.173,19.34,90.13,15.791,74.693c-2.307-9.997,0.103-18.819,7.052-26.321c11.945-12.882,33.146-17.047,48.364-9.595
			c5.358,2.625,8.37,11.242,5.799,16.622c-1.067,2.229-2.315,0.684-3.123-0.071c-5.217-4.879-11.646-6.451-18.451-6.604
			c-7.777-0.174-15.177,1.195-21.147,6.856c-4.082,3.871-5.442,8.832-5.5,14.166c-0.037,3.266,1.499,5.948,4.678,7.346
			c3.493,1.535,6.249-0.029,8.697-2.33c5.608-5.29,11.938-6.746,19.189-3.912c2.052,0.808,3.607,2.253,5.178,3.713
			c2.58,2.388,5.389,4.049,9.044,2.536c3.792-1.572,4.734-4.748,4.733-8.484c-0.018-13.099,0.123-26.204-0.077-39.302
			c-0.064-3.948,1.021-5.481,5.178-5.367c9.044,0.249,8.085-0.443,8.125,7.94C93.558,37.9,93.533,43.917,93.54,49.934z"/>
		<path style="fill-rule:evenodd;clip-rule:evenodd;fill:#48B681;" d="M93.456,13.797c0.011,6.397,0.011,6.397-6.388,6.401
			c-6.695,0.004-6.695,0.004-6.701-6.498c-0.007-7.051,0.073-7.143,6.187-7.149C93.448,6.545,93.448,6.549,93.456,13.797z"/>
	</g>
	<g>
		<g>
			<path style="fill:#20529D;" d="M11.779,39.479c-0.087,0.096-0.223,0.144-0.408,0.143l-0.145-0.097l-0.164-0.182
				c0.008-0.058,0.021-0.127,0.039-0.21c0.021-0.082,0.045-0.146,0.078-0.194l0.827-0.917l-1.056-1.313
				c-0.031-0.05-0.055-0.1-0.069-0.153c-0.014-0.05-0.012-0.129,0.006-0.233l0.081-0.108c0.061-0.066,0.133-0.122,0.216-0.168
				c0.071,0.008,0.139,0.024,0.206,0.046c0.068,0.021,0.123,0.046,0.164,0.073l0.986,1.3l1.021-1.169
				c0.36-0.401,0.737-0.422,1.13-0.068l0.118,0.106c0.705,0.789,1.316,1.605,1.833,2.449c0.518,0.845,0.928,1.693,1.232,2.549
				c0.668-0.144,1.346-0.251,2.035-0.322c0.145,0.021,0.263,0.073,0.354,0.155l0.045,0.042c0.062,0.174,0.061,0.334-0.001,0.476
				l-0.065,0.072c-0.087,0.097-0.194,0.15-0.321,0.155c-0.587,0.031-1.211,0.115-1.873,0.254c0.07,1.018,0.004,2.028-0.197,3.032
				c-0.015,0.041-0.04,0.09-0.075,0.146c-0.034,0.059-0.063,0.098-0.084,0.121l-0.099,0.094c-0.115-0.007-0.228-0.059-0.336-0.156
				l-0.25-0.307c0.168-0.967,0.227-1.891,0.175-2.771l-1.606,0.231c-0.328,0.046-0.603-0.031-0.826-0.233
				c-0.049-0.043-0.095-0.1-0.139-0.166c-0.045-0.066-0.104-0.161-0.179-0.285l-1.933-3.189L11.779,39.479z M13.939,37.081
				l-0.867,0.962c0.277,0.436,0.569,0.921,0.881,1.452c0.229,0.393,0.52,0.902,0.875,1.53c0.067,0.194,0.16,0.341,0.274,0.446
				c0.055,0.047,0.122,0.087,0.201,0.114c0.08,0.028,0.161,0.045,0.241,0.053l1.415-0.257c-0.441-1.374-1.271-2.796-2.491-4.267
				l-0.045-0.041C14.248,36.914,14.086,36.918,13.939,37.081z M20.534,35.386c0.227,0.162,0.494,0.371,0.801,0.625
				c0.308,0.255,0.607,0.514,0.897,0.777l0.246,0.22c0.575,0.848,0.81,1.585,0.704,2.214c-0.115,0.457-0.309,0.834-0.581,1.138
				c-0.137,0.151-0.313,0.298-0.528,0.439c-0.214,0.14-0.398,0.242-0.551,0.3c-0.152,0.061-0.351,0.124-0.595,0.188
				c-0.138,0.019-0.258-0.018-0.361-0.11l-0.037-0.05c-0.028-0.093-0.046-0.167-0.051-0.227c-0.006-0.062-0.003-0.129,0.011-0.205
				l0.033-0.035c0.06-0.067,0.152-0.132,0.276-0.197c0.322-0.114,0.621-0.246,0.897-0.393l0.163-0.182
				c0.419-0.466,0.57-0.944,0.452-1.434c-0.197-0.485-0.547-0.955-1.05-1.408c-0.358-0.322-0.805-0.648-1.342-0.978l-2.338,2.597
				c-0.117,0.093-0.248,0.141-0.391,0.142c-0.07-0.021-0.127-0.049-0.169-0.087l-0.149-0.2c-0.007-0.126,0.03-0.258,0.109-0.396
				l2.151-2.388c-0.687-0.016-1.19-0.035-1.509-0.059l-0.071-0.032c-0.261-0.233-0.4-0.651-0.419-1.25
				c0.051-0.557,0.083-0.996,0.095-1.312c0.017-0.458,0.016-0.936-0.005-1.437l-3.184,3.533c-0.103,0.115-0.231,0.166-0.381,0.149
				c-0.075-0.013-0.135-0.039-0.177-0.076l-0.141-0.209c-0.006-0.127,0.015-0.273,0.065-0.437l3.592-3.987
				c0.349-0.048,0.681,0.072,0.996,0.356l0.109,0.098l-0.005,3.22c-0.037,0.174-0.004,0.309,0.099,0.401
				c0.078,0.07,0.227,0.1,0.446,0.089l1.178,0.19l1.375-1.526c0.117-0.069,0.242-0.117,0.374-0.14l0.189,0.155l0.128,0.13
				c-0.002,0.163-0.033,0.293-0.092,0.396L20.534,35.386z"/>
			<path style="fill:#20529D;" d="M24.151,24.798c-0.05-0.083-0.061-0.21-0.031-0.381l0.154-0.124l0.199-0.094
				c0.062,0.021,0.18,0.083,0.356,0.183l0.396,0.648l4.243-2.599c0.121-0.035,0.254-0.046,0.398-0.028
				c0.036,0.027,0.064,0.057,0.086,0.092c0.021,0.034,0.041,0.069,0.064,0.103c0.047,0.076,0.069,0.129,0.068,0.159
				c-0.038,0.156-0.107,0.27-0.207,0.34l-9.05,5.541c-0.117,0.072-0.25,0.081-0.397,0.028c-0.044-0.011-0.088-0.052-0.132-0.12
				c-0.046-0.077-0.074-0.154-0.085-0.234c0.03-0.124,0.098-0.238,0.206-0.341l4.129-2.527L24.151,24.798z M28.774,24.434
				c0.365-0.167,0.732-0.019,1.102,0.444l0.39,0.636c0.156,0.257,0.209,0.498,0.155,0.722c-0.054,0.224-0.211,0.416-0.466,0.572
				l-5.901,3.613c-0.529,0.323-0.956,0.217-1.284-0.318l-0.491-0.803l-0.048-0.056c-0.235-0.383-0.108-0.723,0.378-1.021
				l0.045-0.042L28.774,24.434z M29.24,25.783l-0.116-0.189c-0.147-0.194-0.338-0.24-0.571-0.137l-5.203,3.185
				c-0.214,0.179-0.259,0.37-0.137,0.572l0.115,0.188c0.136,0.223,0.329,0.271,0.577,0.147l5.204-3.184
				C29.313,26.212,29.355,26.018,29.24,25.783z M30.22,27.405c0.406-0.085,0.685-0.004,0.838,0.247
				c0.094,0.152,0.143,0.318,0.147,0.497c-0.668,0.982-1.377,1.846-2.126,2.591l0.054,0.253c0.042,0.023,0.075,0.026,0.095,0.014
				l1.915-1.157l1.871-1.16c0.06-0.008,0.127-0.018,0.197-0.028c0.07-0.009,0.137-0.011,0.2,0c0.039,0.033,0.086,0.094,0.142,0.185
				c0.048,0.076,0.072,0.133,0.074,0.168c-0.019,0.079-0.05,0.153-0.096,0.218c-0.045,0.066-0.081,0.111-0.104,0.136l-3.357,2.055
				c0.249,0.249,0.436,0.477,0.563,0.686c0.35,0.569,0.399,1.146,0.155,1.727c-0.219,0.238-0.521,0.477-0.912,0.714
				c-0.548,0.337-1.238,0.653-2.068,0.952c-0.241,0.06-0.422,0.066-0.547,0.019c-0.068-0.063-0.133-0.125-0.197-0.18
				c-0.021-0.034-0.037-0.075-0.046-0.123c-0.009-0.048-0.02-0.095-0.031-0.146c0.023-0.196,0.111-0.356,0.266-0.478
				c0.839-0.19,1.493-0.427,1.958-0.711c0.431-0.264,0.723-0.576,0.874-0.938l-0.174-0.307c-0.243-0.398-0.502-0.611-0.779-0.643
				l-4.399,2.694c-0.139,0.057-0.273,0.063-0.405,0.019l-0.117-0.144l-0.101-0.212c0.011-0.043,0.041-0.104,0.087-0.174
				c0.046-0.071,0.087-0.128,0.121-0.167l3.751-2.296l-0.217-0.569c0.44-0.794,0.995-1.52,1.663-2.178
				c0.02-0.03,0.033-0.063,0.041-0.097l0.004-0.017c-0.076-0.029-0.128-0.037-0.156-0.019l-5.223,3.197
				c-0.164,0.061-0.304,0.066-0.421,0.013c-0.07-0.051-0.113-0.092-0.131-0.119l-0.08-0.225c0.018-0.126,0.091-0.241,0.217-0.349
				L30.22,27.405z"/>
			<path style="fill:#20529D;" d="M35.46,20.948c0.076,0.074,0.127,0.167,0.153,0.277l0.012,0.048
				c-0.034,0.176-0.129,0.303-0.285,0.383l-0.041,0.035c-0.128,0.032-0.26,0.002-0.397-0.082c-0.494-0.351-1.041-0.634-1.637-0.851
				c-0.153-0.047-0.253-0.164-0.296-0.346c-0.031-0.126,0.007-0.269,0.111-0.428l0.21-0.063l0.241-0.045
				c0.351,0.167,0.697,0.349,1.042,0.542C34.916,20.613,35.211,20.79,35.46,20.948z M35.676,23.9l0.095,0.24l0.028,0.17
				c-0.048,0.146-0.148,0.25-0.303,0.312c-0.143,0.033-0.279,0.003-0.409-0.092c-0.497-0.391-1.029-0.708-1.599-0.949
				c-0.164-0.053-0.266-0.161-0.305-0.329c-0.002-0.142,0.052-0.271,0.157-0.39l0.197-0.072l0.22-0.027
				c0.432,0.197,0.81,0.393,1.132,0.583C35.213,23.538,35.475,23.721,35.676,23.9z M35.027,30.014
				c0.401-1.127,0.559-2.639,0.473-4.538c-0.033-0.143,0.011-0.274,0.133-0.397l0.204-0.087l0.198-0.009
				c0.115,0.056,0.213,0.155,0.297,0.293c0.105,0.789,0.121,1.602,0.045,2.441c-0.077,0.839-0.251,1.77-0.527,2.79
				c-0.114,0.188-0.242,0.298-0.386,0.331c-0.19,0.013-0.332-0.054-0.425-0.198l-0.072-0.197c-0.027-0.113-0.019-0.222,0.021-0.333
				L35.027,30.014z M38.292,19.755l0.229,1.592l0.499-0.121c0.133-0.005,0.258,0.028,0.375,0.1l0.075,0.208l0.02,0.185
				c-0.067,0.141-0.163,0.228-0.29,0.258l-0.655,0.156c-0.024,0.099-0.046,0.192-0.063,0.28c-0.018,0.086-0.029,0.173-0.033,0.259
				c0.271-0.023,0.444,0.124,0.52,0.44l0.19,0.797c0.133-0.149,0.258-0.322,0.374-0.518c0.115-0.194,0.229-0.422,0.331-0.682
				c0.086-0.104,0.194-0.172,0.328-0.205c0.146,0.042,0.262,0.106,0.349,0.194c0.04,0.166,0.035,0.3-0.016,0.406
				c-0.333,0.716-0.715,1.285-1.148,1.708l-0.191,0.096c-0.238,0.057-0.473-0.084-0.703-0.422l-0.221-0.916
				c-0.115,0.322-0.251,0.62-0.407,0.895c-0.156,0.277-0.328,0.53-0.517,0.759c-0.073,0.076-0.146,0.124-0.218,0.14l-0.162,0.002
				c-0.15-0.032-0.26-0.116-0.325-0.249l-0.029-0.02c-0.024-0.103,0.011-0.22,0.104-0.352c0.317-0.494,0.557-0.937,0.719-1.33
				c0.162-0.39,0.253-0.75,0.275-1.083l-1.961,0.471c-0.139,0.017-0.256-0.019-0.352-0.104l-0.071-0.134
				c-0.002-0.017-0.005-0.058-0.004-0.125c0-0.067,0-0.121-0.001-0.164c0.038-0.05,0.074-0.094,0.112-0.134
				c0.037-0.037,0.086-0.068,0.146-0.091l0.333-0.08l-0.018-1.076c0.042-0.102,0.065-0.163,0.069-0.179
				c0.03-0.05,0.073-0.098,0.129-0.146c0.139-0.016,0.258-0.007,0.359,0.027c0.052,0.039,0.088,0.108,0.113,0.211l0.017,0.072
				c0.021,0.188,0.036,0.364,0.052,0.528c0.014,0.165,0.015,0.293,0.005,0.387l1.059-0.252c0.01-0.168,0.001-0.404-0.023-0.698
				c-0.024-0.296-0.075-0.598-0.148-0.907l-1.985,0.475c-0.143,0.034-0.272-0.003-0.39-0.109c-0.047-0.047-0.076-0.103-0.091-0.167
				c-0.023-0.094-0.026-0.178-0.01-0.249c0.066-0.108,0.166-0.203,0.296-0.286l3.364-0.804c0.069,0.008,0.13,0.022,0.179,0.039
				c0.051,0.018,0.128,0.043,0.228,0.079c0.027,0.043,0.054,0.121,0.08,0.231c0.02,0.08,0.025,0.141,0.02,0.185
				c-0.09,0.146-0.194,0.239-0.312,0.276L38.292,19.755z M38.692,30.203c-0.633,0.153-1.027-0.096-1.183-0.746l-0.613-2.555
				c-0.151-0.636,0.09-1.028,0.725-1.18l6.121-1.465c0.627-0.149,1.018,0.092,1.167,0.727l0.612,2.555
				c0.075,0.31,0.051,0.569-0.07,0.78c-0.122,0.209-0.334,0.348-0.635,0.421L38.692,30.203z M37.91,27.614l6.408-1.535l-0.175-0.726
				c-0.104-0.225-0.283-0.324-0.535-0.297l-5.553,1.328c-0.269,0.106-0.376,0.274-0.319,0.504L37.91,27.614z M38.751,29.286
				l5.551-1.329c0.12-0.028,0.208-0.084,0.268-0.172c0.059-0.084,0.083-0.197,0.076-0.338l-0.168-0.701l-6.409,1.533l0.169,0.703
				C38.303,29.25,38.473,29.352,38.751,29.286z M42.523,18.742c0.172,0.711,0.264,1.24,0.277,1.579l1.249-0.299
				c0.074-0.001,0.134,0.003,0.179,0.014s0.11,0.039,0.197,0.086l0.087,0.205l0.005,0.186c-0.069,0.127-0.165,0.212-0.289,0.259
				l-1.463,0.349c0.003,0.217-0.038,0.411-0.123,0.584l0.308-0.075c0.195,0.079,0.328,0.21,0.397,0.395l0.256,1.07
				c0.068,0.008,0.129,0.017,0.176,0.021c0.046,0.005,0.087,0.004,0.117-0.003c0.057-0.012,0.112-0.037,0.172-0.072
				c0.059-0.035,0.127-0.087,0.202-0.155l-0.162-0.679c-0.006-0.057,0-0.117,0.019-0.179c0.019-0.064,0.053-0.135,0.101-0.213
				l0.173-0.066l0.232-0.03c0.122,0.097,0.214,0.196,0.272,0.299l0.115,0.487c0.152,0.634-0.09,1.027-0.723,1.179l-0.369,0.088
				c-0.627,0.149-1.016-0.092-1.167-0.727l-0.161-0.677c-0.297,0.657-0.642,1.242-1.038,1.756l-0.731,0.667l-0.154,0.049
				c-0.096,0.023-0.179,0.022-0.251-0.003c-0.105-0.059-0.175-0.159-0.211-0.301c-0.006-0.091,0.046-0.212,0.152-0.364
				c0.291-0.287,0.55-0.578,0.776-0.871c0.229-0.293,0.407-0.573,0.536-0.838c0.149-0.354,0.255-0.74,0.314-1.157l-1.652,0.396
				c-0.087,0.021-0.164,0.024-0.229,0.011c-0.067-0.014-0.131-0.047-0.193-0.098l-0.078-0.172l-0.017-0.223
				c0.07-0.125,0.179-0.23,0.327-0.316c0.053-0.439,0.054-0.768,0.002-0.98c-0.002-0.117,0.046-0.236,0.141-0.361l0.096-0.022
				l0.291-0.044c0.133,0.127,0.21,0.231,0.236,0.307c0.013,0.158,0.02,0.316,0.021,0.479s-0.004,0.326-0.016,0.488l1.046-0.25
				c0.014-0.473-0.052-1.006-0.194-1.6l-1.677,0.401c-0.143,0.035-0.272-0.001-0.391-0.107c-0.043-0.048-0.074-0.104-0.09-0.167
				c-0.021-0.095-0.026-0.178-0.01-0.249c0.066-0.108,0.166-0.204,0.298-0.285l3.362-0.805c0.071,0.009,0.13,0.021,0.181,0.039
				c0.05,0.016,0.126,0.042,0.226,0.078c0.028,0.043,0.054,0.121,0.081,0.232c0.019,0.08,0.025,0.141,0.019,0.184
				c-0.091,0.148-0.194,0.24-0.31,0.275L42.523,18.742z"/>
			<path style="fill:#20529D;" d="M50.474,19.876c0.521,0.028,0.765,0.345,0.732,0.947l-0.008,0.146
				c-0.898,2.382-2.345,4.629-4.339,6.74l-0.209,0.026c-0.104-0.007-0.201-0.037-0.288-0.09c-0.045-0.084-0.082-0.162-0.115-0.233
				c-0.034-0.071-0.048-0.143-0.044-0.216c0.047-0.112,0.093-0.201,0.138-0.27c0.044-0.065,0.097-0.13,0.157-0.193
				c1.41-1.472,2.617-3.229,3.619-5.272c0.04-0.127,0.063-0.254,0.07-0.376c0.015-0.268-0.145-0.412-0.48-0.431l-2.549-0.14
				c-0.138-0.007-0.258-0.074-0.355-0.204c-0.029-0.067-0.042-0.132-0.038-0.197c0.004-0.09,0.023-0.166,0.062-0.229
				c0.117-0.093,0.245-0.154,0.377-0.188L50.474,19.876z M52.436,27.649c-0.136,0.668-0.646,1.02-1.528,1.054
				c-0.784-0.125-1.475-0.407-2.07-0.849c-0.015-0.042-0.025-0.083-0.03-0.124c-0.034-0.117-0.051-0.187-0.051-0.212l0.046-0.154
				c0.096-0.11,0.223-0.189,0.38-0.238c0.104,0.046,0.187,0.084,0.252,0.112c0.064,0.027,0.122,0.059,0.178,0.095
				c0.219,0.167,0.44,0.299,0.662,0.396c0.225,0.099,0.45,0.155,0.678,0.167l0.05,0.002c0.39,0.021,0.605-0.334,0.646-1.067
				l0.018-0.072l0.49-8.935c0.014-0.106,0.081-0.216,0.202-0.331l0.208-0.014l0.218,0.038c0.047,0.059,0.087,0.127,0.124,0.201
				c0.035,0.076,0.059,0.125,0.065,0.151l-0.066,1.209c0.362,1.276,0.844,2.548,1.443,3.813c1.087,1.896,2.304,3.522,3.648,4.878
				c0.021,0.058,0.044,0.133,0.063,0.224c0.02,0.091,0.025,0.188,0.02,0.294c-0.13,0.148-0.281,0.242-0.455,0.281
				c-0.22-0.011-0.37-0.098-0.451-0.258c-1.071-1.282-2.096-2.653-3.067-4.11c-0.508-0.859-0.946-1.855-1.318-2.985L52.436,27.649z
				 M55.117,22.715c-0.116,0.05-0.203,0.074-0.26,0.072c-0.034-0.002-0.082-0.021-0.144-0.057c-0.161-0.083-0.249-0.193-0.264-0.333
				c0.006-0.131,0.054-0.242,0.141-0.335c0.445-0.399,0.871-0.828,1.275-1.282c0.405-0.457,0.798-0.954,1.179-1.497
				c0.064-0.135,0.182-0.235,0.347-0.299c0.096,0.021,0.164,0.041,0.203,0.06c0.041,0.019,0.12,0.067,0.238,0.147l0.021,0.295
				l-0.02,0.133C57.106,20.691,56.201,21.722,55.117,22.715z"/>
		</g>
	</g>
</g>
</svg>
